<svg width="180" height="79" viewBox="0 0 180 79" fill="none" xmlns="http://www.w3.org/2000/svg">
<path fill-rule="evenodd" clip-rule="evenodd" d="M106.41 9.8796C99.7519 3.29322 91.765 0 82.4486 0C77.2629 0.0388204 72.1523 1.25083 67.4967 3.54604C61.418 6.5281 56.5823 11.0366 52.9884 17.0716C49.0136 23.6735 46.9409 31.2554 47.0013 38.972C46.9708 45.6859 48.5347 52.3101 51.563 58.2942C54.7802 64.7679 59.2871 69.7177 65.0835 73.1435C69.9445 76.0805 75.4622 77.7405 81.1286 77.972C86.7951 78.2034 92.4283 76.9981 97.5095 74.4671C103.555 71.4864 108.391 66.9795 112.018 60.9443C112.745 59.7263 113.405 58.4935 114 57.2462H105.677C104.659 58.8838 103.475 60.4329 102.128 61.893C96.8859 67.597 90.3435 70.4497 82.5016 70.4497C74.6598 70.4497 68.121 67.5933 62.8853 61.8811C57.3494 55.8833 54.5815 48.2471 54.5815 38.972C54.5815 29.697 57.3494 22.0795 62.8853 16.1195C68.1578 10.4155 74.6789 7.56339 82.4486 7.56339C90.2927 7.63622 96.8528 10.4904 102.128 16.1258C103.366 17.444 104.466 18.8563 105.428 20.3624H113.778C111.845 16.3014 109.389 12.807 106.41 9.8796Z" fill="white"/>
<path fill-rule="evenodd" clip-rule="evenodd" d="M78.9192 7.31767C72.8298 2.43925 65.7498 0 57.6799 0C52.4613 0.0391901 47.3187 1.2512 42.6332 3.54604C36.5112 6.5281 31.6437 11.0366 28.0305 17.0716C24.0287 23.6732 21.9414 31.2551 22.0013 38.972C21.9705 45.6859 23.5446 52.3101 26.5927 58.2942C29.8308 64.7679 34.3671 69.7177 40.2015 73.1435C45.0938 76.0805 50.6473 77.7405 56.3508 77.972C62.0545 78.2034 67.7245 76.9981 72.8387 74.4671C75.0543 73.3816 77.1075 72.0949 79 70.605C75.9627 70.0364 73.0862 68.9435 70.4483 67.4136C66.6752 69.4374 62.4376 70.4497 57.7361 70.4497C49.8429 70.4497 43.2604 67.5933 37.9886 61.8811C32.4188 55.8833 29.6329 48.2471 29.6308 38.972C29.6287 29.697 32.4147 22.0795 37.9886 16.1195C43.3001 10.4155 49.8638 7.56339 57.6799 7.56339C62.3301 7.60635 66.5322 8.6145 70.2868 10.588C72.9454 9.02259 75.8501 7.90249 78.9192 7.31767Z" fill="white"/>
<path fill-rule="evenodd" clip-rule="evenodd" d="M109.602 21.8482L109.868 22.7472H110.244L110.212 21.3564H107.031L107 22.7472H107.376L107.626 21.8482H108.222V26.3308L107.878 26.5719V26.8382H109.385V26.5719L109.04 26.3308V21.8482H109.602ZM112.219 22.2867L112.826 24.918H111.601L112.209 22.2867H112.219ZM111.507 25.3629H112.945L113.202 26.4623L112.986 26.6346V26.8382H114.313V26.597L114.033 26.4247L112.78 21.3344H111.983C111.883 21.7385 111.779 22.1521 111.67 22.5874C111.56 23.0228 111.463 23.452 111.357 23.8906C111.25 24.3291 111.149 24.7645 111.043 25.1968L110.729 26.4498L110.448 26.6001V26.8414H111.51V26.6001L111.238 26.4592L111.494 25.366L111.507 25.3629ZM115.582 26.3934V22.9821L115.541 21.9734H115.582C115.675 22.4872 115.77 22.9978 115.857 23.499C115.945 24.0002 116.037 24.5077 116.12 25.0088C116.205 25.5101 116.29 26.0238 116.378 26.5406C116.384 26.604 116.413 26.663 116.459 26.7067C116.513 26.7456 116.578 26.7643 116.644 26.7599H117.293L118.152 21.9202H118.183L118.158 22.7002V26.3809L117.816 26.6158V26.8414H119.308V26.6158L118.964 26.3809V21.7949L119.277 21.5913V21.3689H118.127C118.047 21.3642 117.967 21.3705 117.889 21.3877C117.832 21.4038 117.781 21.4393 117.748 21.4879C117.706 21.5539 117.679 21.6274 117.666 21.7041L116.971 25.8264C116.936 25.5132 116.898 25.2344 116.861 24.9619C116.823 24.6893 116.789 24.4231 116.751 24.1662C116.713 23.9093 116.67 23.6525 116.629 23.3956C116.588 23.1387 116.537 22.8725 116.491 22.6C116.444 22.3274 116.387 22.0361 116.328 21.7291C116.312 21.6487 116.282 21.5721 116.237 21.5036C116.201 21.4519 116.149 21.4142 116.089 21.3971C116.012 21.3763 115.932 21.3668 115.852 21.3689H114.72V21.5882L115.033 21.7918V26.3809L114.72 26.5845V26.8257H115.93V26.5845L115.616 26.3809L115.582 26.3934ZM121.619 26.3527H121.111V24.0597H121.613C121.758 24.052 121.903 24.0834 122.032 24.1505C122.139 24.2082 122.222 24.3013 122.267 24.4137C122.318 24.5487 122.343 24.6923 122.339 24.8366V25.5696C122.344 25.7136 122.321 25.8572 122.271 25.9925C122.228 26.1061 122.147 26.2013 122.042 26.2618C121.911 26.329 121.765 26.3603 121.619 26.3527ZM123.151 24.8366C123.159 24.6293 123.117 24.4231 123.029 24.2351C122.955 24.0809 122.84 23.9499 122.697 23.8561C122.545 23.7608 122.377 23.6949 122.202 23.6619C122.003 23.6231 121.8 23.6043 121.597 23.6055H121.111V21.8168H122.308L122.527 22.5843H122.916V21.3689H120.026V21.5725L120.34 21.7761V26.4216L120.026 26.6252V26.8508H121.613C121.812 26.8521 122.012 26.8301 122.208 26.785C122.383 26.7456 122.549 26.6734 122.697 26.5719C122.84 26.4729 122.955 26.3378 123.029 26.1804C123.116 25.9931 123.157 25.7883 123.151 25.5821V24.8491V24.8366ZM127.129 22.7378C127.131 22.4685 127.064 22.2031 126.934 21.9672C126.806 21.7499 126.618 21.5738 126.392 21.4597C126.131 21.3391 125.847 21.2766 125.56 21.2766C125.273 21.2766 124.989 21.3391 124.728 21.4597C124.503 21.574 124.317 21.7501 124.189 21.9672C124.057 22.2015 123.99 22.4662 123.995 22.7346V25.4537C123.99 25.7221 124.057 25.9868 124.189 26.2211C124.317 26.4382 124.503 26.6143 124.728 26.7286C124.985 26.8566 125.271 26.9201 125.558 26.9134C125.847 26.9194 126.133 26.8572 126.392 26.7317C126.619 26.6194 126.807 26.443 126.934 26.2243C127.064 25.9884 127.131 25.723 127.129 25.4537V22.7346V22.7378ZM124.806 22.7378C124.788 22.4913 124.852 22.2459 124.988 22.0393C125.057 21.9573 125.146 21.8931 125.245 21.8517C125.344 21.8103 125.451 21.793 125.558 21.8011C125.711 21.7973 125.862 21.8423 125.988 21.9296C126.102 22.0165 126.191 22.1337 126.242 22.2679C126.298 22.4182 126.325 22.5775 126.324 22.7378V25.4568C126.324 25.5785 126.308 25.6997 126.276 25.8171C126.248 25.9234 126.201 26.024 126.139 26.1146C126.075 26.201 125.993 26.2708 125.897 26.3182C125.792 26.3705 125.676 26.3964 125.558 26.3934C125.451 26.4016 125.344 26.3843 125.245 26.3429C125.146 26.3015 125.057 26.2373 124.988 26.1553C124.854 25.9481 124.79 25.7032 124.806 25.4568V22.7378ZM129.721 26.8382C129.903 26.8392 130.084 26.8235 130.263 26.7913C130.422 26.7626 130.574 26.7053 130.712 26.6221C130.845 26.5388 130.954 26.4208 131.025 26.2806C131.104 26.1078 131.142 25.9193 131.138 25.7293V24.8146C131.14 24.6661 131.114 24.5185 131.062 24.3792C131.018 24.2597 130.946 24.1524 130.853 24.066C130.761 23.9836 130.654 23.9188 130.539 23.8749C130.63 23.8363 130.711 23.7785 130.778 23.7057C130.844 23.6323 130.894 23.5459 130.925 23.452C130.96 23.3578 130.978 23.2581 130.978 23.1575V22.3713C130.983 22.2021 130.952 22.0337 130.89 21.8764C130.839 21.7511 130.752 21.6426 130.642 21.5631C130.527 21.4859 130.397 21.4337 130.26 21.4096C130.097 21.378 129.931 21.3632 129.765 21.3658H128.016V21.5944L128.314 21.7949V26.3809L127.959 26.6158V26.8414L129.721 26.8382ZM130.317 25.7293C130.321 25.8537 130.304 25.978 130.263 26.0958C130.233 26.1869 130.168 26.2623 130.081 26.3057C129.968 26.3535 129.844 26.3749 129.721 26.3683H128.91V26.3308C128.964 26.3173 129.011 26.2837 129.041 26.2368C129.066 26.1863 129.077 26.13 129.072 26.0739V24.138H129.636C129.77 24.1318 129.903 24.1565 130.025 24.2101C130.119 24.2566 130.194 24.3356 130.235 24.4325C130.283 24.552 130.305 24.6799 130.301 24.8084V25.7293H130.317ZM130.15 23.1607C130.151 23.2559 130.134 23.3504 130.101 23.4395C130.066 23.5235 130.011 23.5977 129.94 23.6556C129.862 23.7156 129.766 23.7477 129.667 23.7465H129.088V21.8262H129.667C129.763 21.8228 129.855 21.8491 129.934 21.9014C130.007 21.9496 130.064 22.0183 130.097 22.0988C130.133 22.1851 130.151 22.2778 130.15 22.3713V23.1607ZM135.044 21.3501H134.504L134.442 21.6446H134.416C134.341 21.5621 134.25 21.4941 134.15 21.4441C134.051 21.3944 133.945 21.3596 133.837 21.3407C133.726 21.3193 133.614 21.3088 133.501 21.3094C133.226 21.3032 132.953 21.3623 132.705 21.4816C132.487 21.588 132.307 21.76 132.191 21.9734C132.065 22.2169 132.001 22.4886 132.009 22.7628V25.4725C132.004 25.6934 132.045 25.913 132.129 26.1177C132.198 26.2898 132.305 26.444 132.441 26.5688C132.586 26.6905 132.753 26.7821 132.934 26.8382C133.132 26.8963 133.338 26.9248 133.545 26.9228C133.751 26.9253 133.955 26.8989 134.153 26.8445C134.331 26.793 134.497 26.7079 134.642 26.5939C134.778 26.4758 134.886 26.3279 134.955 26.1616C135.037 25.963 135.078 25.7498 135.075 25.5351V25.2375H134.26V25.5257C134.266 25.6868 134.245 25.8478 134.197 26.0018C134.162 26.1299 134.081 26.2411 133.971 26.3151C133.837 26.3935 133.682 26.4306 133.526 26.4216C133.425 26.4278 133.324 26.4107 133.231 26.3716C133.137 26.3325 133.054 26.2724 132.987 26.1961C132.849 25.986 132.782 25.7362 132.799 25.485V22.7754C132.794 22.5876 132.828 22.4008 132.899 22.2272C132.948 22.1083 133.032 22.0072 133.141 21.9377C133.249 21.8682 133.375 21.8336 133.504 21.8388C133.659 21.8328 133.811 21.878 133.937 21.9672C134.039 22.0479 134.116 22.1568 134.156 22.2804C134.199 22.4269 134.217 22.5792 134.213 22.7315V22.8787H135.027V21.3501H135.044ZM139.19 21.3658H138.876C138.772 21.3653 138.667 21.3747 138.564 21.3939C138.465 21.4111 138.371 21.4485 138.287 21.5036C138.185 21.5791 138.1 21.6751 138.037 21.7855C137.968 21.9054 137.912 22.0325 137.87 22.1645C137.823 22.3024 137.783 22.4433 137.745 22.5905C137.708 22.7378 137.667 22.8756 137.623 23.0103C137.583 23.1368 137.529 23.2587 137.463 23.3737C137.406 23.4767 137.326 23.5647 137.228 23.6306C137.122 23.6976 136.999 23.7313 136.874 23.7276V21.8011L137.187 21.5975V21.3689H135.805V21.5944L136.103 21.798V26.3809L135.761 26.6158V26.8414H137.244V26.6158L136.892 26.3809V24.1631H137.128C137.269 24.1571 137.408 24.199 137.523 24.2821C137.629 24.3643 137.711 24.4721 137.764 24.5954C137.826 24.7368 137.871 24.8851 137.899 25.037L138.127 26.124C138.153 26.2598 138.196 26.3915 138.256 26.5156C138.309 26.6257 138.39 26.7198 138.492 26.7881C138.613 26.8595 138.752 26.8943 138.892 26.8883H139.055C139.118 26.8848 139.18 26.8754 139.241 26.8601C139.301 26.8469 139.36 26.8259 139.416 26.7975V26.4842C139.379 26.4935 139.341 26.4949 139.304 26.4884C139.267 26.482 139.231 26.4677 139.2 26.4467C139.135 26.4012 139.082 26.341 139.046 26.2713C139.003 26.1939 138.972 26.1104 138.955 26.0238L138.714 24.8836C138.687 24.7601 138.651 24.6387 138.607 24.5202C138.57 24.4103 138.519 24.3052 138.457 24.2069C138.402 24.118 138.332 24.0395 138.25 23.9751C138.171 23.9137 138.077 23.8766 137.977 23.8686V23.853C138.048 23.8221 138.108 23.7708 138.15 23.7057C138.209 23.6182 138.26 23.5248 138.3 23.427C138.347 23.311 138.391 23.192 138.435 23.0636C138.479 22.9351 138.516 22.8036 138.554 22.6751C138.592 22.5467 138.626 22.4308 138.66 22.3212C138.686 22.232 138.717 22.1442 138.752 22.058C138.779 21.9861 138.814 21.9169 138.855 21.8513C138.886 21.7974 138.931 21.753 138.986 21.7229C139.051 21.6896 139.124 21.6754 139.197 21.6821V21.3689L139.19 21.3658ZM142.011 21.5913L142.3 21.8106L141.309 24.4262L140.996 25.4568V21.7949L141.284 21.5913V21.3689H139.88V21.5882L140.168 21.7918V26.3809L139.826 26.6221V26.8414H141.309V26.6221L140.996 26.3965L141.936 23.8906L142.277 22.8192C142.277 23.1983 142.277 23.5898 142.277 23.9939C142.277 24.398 142.277 24.8021 142.277 25.2062C142.277 25.6103 142.277 26.0018 142.277 26.3809L141.927 26.6221V26.8414H143.409V26.6221L143.067 26.3809V21.7949L143.356 21.5913V21.3689H141.979V21.5882L142.011 21.5913ZM146.277 21.372H147.653V21.5913L147.362 21.7949V26.3809L147.706 26.6221V26.8414H146.224V26.6221L146.575 26.3809C146.575 26.0018 146.575 25.6103 146.575 25.2062C146.575 24.8021 146.575 24.398 146.575 23.9939C146.575 23.5898 146.575 23.1983 146.575 22.8192L146.214 23.8749L145.259 26.3809L145.587 26.6064V26.8257H144.105V26.6064L144.446 26.3652V21.7949L144.158 21.5913V21.3689H145.522V21.5882L145.23 21.7918V25.4537L145.543 24.4231L146.534 21.8075L146.245 21.5882V21.3689L146.277 21.372ZM146.528 20C146.514 20.0704 146.483 20.1362 146.437 20.1911C146.381 20.2512 146.312 20.2983 146.237 20.3289C146.142 20.3642 146.043 20.3822 145.942 20.3821C145.843 20.3816 145.745 20.3625 145.653 20.3258C145.582 20.295 145.518 20.2478 145.468 20.188C145.425 20.1334 145.398 20.0686 145.387 20L145.105 20.0439C145.095 20.1609 145.11 20.2786 145.147 20.39C145.184 20.5014 145.243 20.6042 145.321 20.6922C145.406 20.7676 145.505 20.8253 145.613 20.8618C145.721 20.8984 145.835 20.9132 145.948 20.9053C146.107 20.9089 146.263 20.8779 146.409 20.8145C146.541 20.757 146.651 20.658 146.722 20.5325C146.795 20.3804 146.83 20.2125 146.822 20.0439L146.549 20H146.528ZM110.009 30.7256H107.213V30.9543L107.508 31.1955V35.747L107.157 35.982V36.2075H108.642V35.982L108.297 35.747V31.1861H109.398L109.633 32.0319H110.009V30.7256ZM113.798 32.1102C113.804 31.8406 113.736 31.5746 113.604 31.3396C113.477 31.1209 113.289 30.9445 113.062 30.8322C112.802 30.7105 112.518 30.6475 112.231 30.6475C111.944 30.6475 111.661 30.7105 111.4 30.8322C111.175 30.9453 110.986 31.1216 110.858 31.3396C110.727 31.5749 110.66 31.8407 110.664 32.1102V34.8386C110.66 35.1071 110.727 35.3718 110.858 35.6061C110.986 35.8241 111.175 36.0003 111.4 36.1136C111.657 36.2419 111.941 36.3054 112.228 36.2983C112.517 36.3044 112.802 36.2422 113.062 36.1167C113.289 36.0044 113.477 35.8279 113.604 35.6092C113.735 35.374 113.803 35.1081 113.798 34.8386V32.1227V32.1102ZM111.479 32.1102C111.46 31.8631 111.522 31.6165 111.658 31.4085C111.727 31.3266 111.815 31.2623 111.914 31.221C112.014 31.1796 112.121 31.1623 112.228 31.1705C112.381 31.168 112.531 31.2129 112.657 31.2989C112.772 31.3858 112.86 31.503 112.911 31.6372C112.967 31.7886 112.994 31.9489 112.993 32.1102V34.8386C112.993 34.9601 112.978 35.081 112.949 35.1989C112.921 35.3059 112.873 35.4067 112.808 35.4964C112.746 35.5827 112.664 35.6527 112.569 35.7C112.463 35.752 112.346 35.7777 112.228 35.7752C112.121 35.7834 112.014 35.7661 111.914 35.7247C111.815 35.6833 111.727 35.6191 111.658 35.5371C111.523 35.33 111.461 35.0847 111.479 34.8386V32.1227V32.1102ZM117.813 30.7194H117.274L117.211 31.017H117.19C117.113 30.9334 117.022 30.8644 116.92 30.8133C116.82 30.7653 116.715 30.7305 116.606 30.71C116.223 30.6394 115.827 30.6886 115.472 30.851C115.255 30.9584 115.076 31.1301 114.961 31.3428C114.833 31.5859 114.77 31.8576 114.776 32.1322V34.8386C114.773 35.0594 114.813 35.2787 114.895 35.4839C114.965 35.6565 115.072 35.8116 115.209 35.9381C115.354 36.0577 115.521 36.1481 115.701 36.2044C115.904 36.2648 116.115 36.2944 116.328 36.2921C116.533 36.2935 116.738 36.2661 116.936 36.2106C117.114 36.1605 117.28 36.0753 117.425 35.96C117.561 35.8418 117.668 35.6939 117.738 35.5278C117.819 35.3289 117.859 35.1158 117.854 34.9013V34.6037H117.043V34.8919C117.047 35.0531 117.025 35.2141 116.977 35.368C116.942 35.496 116.861 35.6072 116.751 35.6813C116.616 35.7601 116.462 35.7971 116.306 35.7877C116.204 35.794 116.103 35.7768 116.01 35.7377C115.916 35.6986 115.833 35.6386 115.767 35.5622C115.627 35.3526 115.562 35.1022 115.582 34.8511V32.1415C115.574 31.9536 115.609 31.7665 115.682 31.5934C115.733 31.4692 115.824 31.3648 115.939 31.2957C116.042 31.2327 116.163 31.2012 116.284 31.2049C116.439 31.1997 116.592 31.2448 116.719 31.3334C116.823 31.4128 116.898 31.5223 116.936 31.6466C116.977 31.7933 116.997 31.9452 116.995 32.0977V32.2449H117.807V30.7163L117.813 30.7194ZM118.782 36.2169C119.062 36.3339 119.374 36.3429 119.66 36.2419C119.784 36.1787 119.894 36.0904 119.982 35.9826C120.071 35.8747 120.136 35.7497 120.174 35.6155L121.7 31.1015L121.966 30.9543V30.7413H120.885V30.9543L121.158 31.0921L120.337 33.6389L119.462 31.0797C119.438 31.0115 119.407 30.9463 119.368 30.8854C119.336 30.8393 119.29 30.8044 119.236 30.7851C119.166 30.764 119.091 30.7545 119.017 30.7569H118.221V30.9762L118.556 31.1172L119.907 34.8261L119.672 35.4526C119.637 35.5701 119.58 35.6804 119.506 35.7784C119.441 35.852 119.35 35.8979 119.252 35.9068C119.123 35.9102 118.993 35.8868 118.873 35.8379L118.795 36.2138L118.782 36.2169ZM122.671 35.2176C122.667 35.3399 122.632 35.4592 122.571 35.5653C122.549 35.603 122.519 35.6355 122.483 35.6608C122.448 35.6862 122.408 35.7038 122.365 35.7126C122.261 35.7301 122.155 35.7301 122.051 35.7126L122.004 37H122.411L122.643 36.195H125.396L125.63 37H126.035L125.982 35.7126H125.493V31.1705L125.791 30.97V30.7413H122.76V30.97L123.095 31.1705L122.671 35.2176ZM123.64 31.2112H124.703V35.7251H122.995V35.7C123.062 35.6643 123.119 35.6127 123.16 35.5497C123.197 35.4911 123.221 35.4263 123.233 35.3586C123.233 35.2897 123.252 35.2145 123.258 35.1299L123.64 31.2112ZM128 31.656L128.609 34.2873H127.383L127.991 31.656H128ZM127.292 34.7321H128.727L128.985 35.8316L128.768 36.0039V36.2075H130.094V35.9663L129.815 35.794L128.561 30.7037H127.759C127.659 31.1078 127.555 31.5244 127.446 31.9567C127.336 32.389 127.238 32.8213 127.132 33.2598C127.025 33.6984 126.926 34.1369 126.819 34.5661L126.505 35.819L126.226 35.9695V36.2106H127.289V35.9695L127.013 35.8285L127.273 34.7352L127.292 34.7321ZM132.103 31.2112C132.25 31.2045 132.396 31.237 132.526 31.3052C132.632 31.3649 132.713 31.4604 132.755 31.5745C132.804 31.7111 132.826 31.8557 132.821 32.0006V32.9811C132.828 33.1266 132.803 33.2718 132.749 33.4071C132.704 33.5195 132.622 33.6133 132.517 33.6733C132.386 33.739 132.24 33.7702 132.094 33.7642H131.596V31.2112H132.103ZM133.636 32.0006C133.64 31.7932 133.597 31.5877 133.511 31.3991C133.442 31.2437 133.334 31.1088 133.197 31.0076C133.05 30.9045 132.884 30.8311 132.708 30.7914C132.512 30.7463 132.311 30.7243 132.109 30.7256H130.508V30.9543L130.806 31.1548V35.747L130.454 35.982V36.2075H131.941V35.982L131.596 35.747V34.2121H132.078C132.282 34.2133 132.486 34.1944 132.686 34.1557C132.862 34.1219 133.031 34.0549 133.181 33.9584C133.319 33.8633 133.427 33.7321 133.495 33.5794C133.583 33.3901 133.625 33.1833 133.621 32.9747V31.9943L133.636 32.0006ZM137.447 30.7194H136.908L136.846 31.017H136.82C136.746 30.9326 136.655 30.8634 136.554 30.8133C136.455 30.7653 136.349 30.7305 136.241 30.71C135.857 30.6394 135.46 30.6886 135.106 30.851C134.889 30.959 134.709 31.1306 134.592 31.3428C134.467 31.5867 134.404 31.858 134.41 32.1322V34.8386C134.407 35.0594 134.448 35.2787 134.529 35.4839C134.599 35.6565 134.706 35.8116 134.843 35.9381C134.988 36.0577 135.155 36.1481 135.335 36.2044C135.539 36.2648 135.75 36.2944 135.961 36.2921C136.167 36.2935 136.372 36.2661 136.57 36.2106C136.748 36.1605 136.914 36.0753 137.059 35.96C137.195 35.842 137.303 35.694 137.372 35.5278C137.454 35.3292 137.494 35.116 137.491 34.9013V34.6037H136.683V34.8919C136.686 35.053 136.664 35.2138 136.617 35.368C136.582 35.496 136.502 35.6072 136.391 35.6813C136.256 35.7601 136.102 35.7971 135.946 35.7877C135.845 35.794 135.744 35.7768 135.65 35.7377C135.556 35.6986 135.473 35.6386 135.407 35.5622C135.267 35.3526 135.202 35.1022 135.222 34.8511V32.1415C135.215 31.9536 135.249 31.7665 135.322 31.5934C135.371 31.4749 135.455 31.3742 135.562 31.3048C135.67 31.2353 135.796 31.2005 135.924 31.2049C136.079 31.1997 136.232 31.2448 136.36 31.3334C136.461 31.4142 136.536 31.5232 136.576 31.6466C136.617 31.7933 136.638 31.9452 136.635 32.0977V32.2449H137.447V30.7163V30.7194ZM140.604 31.2175L140.87 32.1165H141.243L141.212 30.7256H138.034L138.003 32.1165H138.379L138.626 31.2175H139.212V35.7L138.87 35.9413V36.2075H140.378V35.9413L140.033 35.7V31.2175H140.604ZM143.535 36.2075C143.716 36.2116 143.898 36.1958 144.076 36.1605C144.235 36.1328 144.388 36.0754 144.525 35.9913C144.658 35.9079 144.767 35.79 144.838 35.6499C144.917 35.4771 144.955 35.2884 144.948 35.0986V34.1777C144.952 34.029 144.926 33.8811 144.873 33.7422C144.828 33.6228 144.756 33.5155 144.663 33.429C144.571 33.3467 144.465 33.2819 144.349 33.2379C144.441 33.2011 144.522 33.1431 144.588 33.0688C144.654 32.9947 144.705 32.9086 144.738 32.8151C144.772 32.7207 144.789 32.6209 144.788 32.5205V31.7312C144.793 31.562 144.763 31.3936 144.701 31.2362C144.65 31.111 144.565 31.0026 144.456 30.923C144.339 30.8477 144.209 30.7955 144.073 30.7695C143.911 30.7378 143.744 30.7231 143.579 30.7256H141.826V30.9543L142.139 31.1548V35.747L141.789 35.982V36.2075H143.535ZM144.127 35.0986C144.131 35.2227 144.114 35.3467 144.076 35.4651C144.044 35.5564 143.978 35.6317 143.891 35.675C143.779 35.7237 143.657 35.7462 143.535 35.7408H142.735V35.7C142.789 35.6866 142.836 35.653 142.867 35.6061C142.893 35.5558 142.905 35.4996 142.902 35.4432V33.5073H143.463C143.596 33.5024 143.729 33.527 143.851 33.5794C143.946 33.6257 144.022 33.7046 144.064 33.8017C144.109 33.9219 144.13 34.0495 144.127 34.1777V35.0986ZM143.964 32.53C143.964 32.6254 143.945 32.7199 143.911 32.8088C143.878 32.894 143.822 32.9687 143.751 33.0249C143.673 33.0854 143.576 33.1174 143.478 33.1157H142.902V31.1955H143.478C143.573 31.1922 143.668 31.2185 143.747 31.2707C143.819 31.3197 143.874 31.3883 143.908 31.468C143.946 31.5537 143.965 31.6467 143.964 31.7406V32.53ZM148.597 34.9827H148.252L147.985 35.7313H146.659V35.6938C146.712 35.6793 146.759 35.6473 146.791 35.603C146.815 35.5553 146.825 35.5024 146.822 35.4494V33.7235H147.572L147.775 34.14H148.01V32.8182H147.775L147.572 33.2473H146.822V31.1861H147.885L148.105 31.9536H148.493V30.7256H145.713V30.9292L146.011 31.1329V35.747L145.659 35.982V36.2075H148.597V34.9827ZM149.597 31.1579V35.794L149.245 35.982V36.2075H150.737V35.982L150.387 35.794V33.6389H151.64V35.794L151.298 35.982V36.2075H152.781V35.982L152.43 35.794V31.1579L152.727 30.9543V30.7256H151.345V30.9543L151.64 31.1579V33.194H150.387V31.1579L150.681 30.9543V30.7256H149.299V30.9543L149.612 31.1579H149.597ZM153.815 31.1579V35.794L153.464 35.982V36.2075H154.957V35.982L154.605 35.794V33.6389H155.859V35.794L155.518 35.982V36.2075H157V35.982L156.649 35.794V31.1579L156.962 30.9543V30.7256H155.58V30.9543L155.875 31.1579V33.194H154.621V31.1579L154.916 30.9543V30.7256H153.534V30.9543L153.815 31.1579Z" fill="white"/>
<path fill-rule="evenodd" clip-rule="evenodd" d="M158.356 36.2753H157.859V33.8498H158.338C158.48 33.8438 158.621 33.8747 158.749 33.9394C158.853 33.9977 158.934 34.0905 158.978 34.2021C159.029 34.3352 159.053 34.4768 159.049 34.6191V35.5121C159.053 35.6562 159.031 35.7998 158.982 35.9354C158.94 36.0457 158.862 36.1383 158.761 36.198C158.634 36.2652 158.491 36.2972 158.347 36.2907L158.356 36.2753ZM159.853 34.6037C159.86 34.3983 159.818 34.1941 159.733 34.0074C159.662 33.8553 159.549 33.7268 159.408 33.6366C159.261 33.5404 159.096 33.4743 158.923 33.442C158.728 33.4036 158.531 33.3851 158.331 33.3864H157.859V31.8075L158.194 31.5789V31.3534H156.742V31.5789L157.086 31.8075V36.3216L156.795 36.5194V36.7356H158.338C158.533 36.7379 158.729 36.7172 158.92 36.6738C159.093 36.6357 159.256 36.5644 159.402 36.4637C159.535 36.3644 159.641 36.2325 159.709 36.0806C159.794 35.8948 159.834 35.6918 159.829 35.4874V34.5945L159.853 34.6037ZM161.491 31.7704L161.78 31.5696V31.3378H160.426V31.5634L160.733 31.7643V36.2907L160.39 36.5224V36.7449H161.841V36.5224L161.506 36.2907V31.7704H161.491ZM164.601 31.3534H165.948V31.5696L165.666 31.7704V36.2907L166 36.5286V36.7449H164.549V36.5286L164.893 36.2907C164.893 35.9169 164.893 35.5306 164.893 35.132C164.893 34.7334 164.893 34.3349 164.893 33.9394C164.893 33.544 164.893 33.1515 164.893 32.7776L164.549 33.8498L163.629 36.3216L163.936 36.544V36.7603H162.485V36.544L162.819 36.3062V31.7704L162.537 31.5696V31.3534H163.883V31.5696L163.601 31.7704V35.3946L163.908 34.3782L164.877 31.7982L164.595 31.5819V31.3657L164.601 31.3534ZM164.847 30C164.837 30.0704 164.805 30.1361 164.757 30.1885C164.703 30.2478 164.636 30.2942 164.561 30.3245C164.469 30.3593 164.371 30.3771 164.273 30.377C164.177 30.3783 164.082 30.3594 163.994 30.3214C163.922 30.293 163.86 30.2461 163.813 30.1854C163.768 30.1328 163.739 30.0685 163.73 30L163.454 30.0464C163.445 30.1613 163.459 30.2769 163.496 30.3862C163.532 30.4956 163.59 30.5964 163.666 30.6829C163.749 30.7572 163.846 30.814 163.952 30.8501C164.057 30.8862 164.168 30.9008 164.279 30.8929C164.434 30.8965 164.588 30.8659 164.73 30.8033C164.854 30.7439 164.956 30.6466 165.021 30.5253C165.094 30.3768 165.128 30.2118 165.119 30.0464L164.853 30H164.847ZM107.549 45.9955C107.822 46.1112 108.129 46.12 108.408 46.0202C108.53 45.9578 108.638 45.8707 108.724 45.7643C108.811 45.658 108.874 45.5347 108.911 45.4023L110.402 40.9562L110.663 40.8109V40.6008H109.608V40.8109L109.874 40.95L109.071 43.4588L108.215 40.9191C108.194 40.8508 108.163 40.7862 108.123 40.7275C108.091 40.6821 108.046 40.6475 107.994 40.6286C107.924 40.6076 107.852 40.5982 107.78 40.6008H107V40.8171L107.329 40.9562L108.647 44.6082L108.42 45.2262C108.38 45.3448 108.32 45.4555 108.243 45.5537C108.179 45.6262 108.09 45.6716 107.994 45.6803C107.867 45.6851 107.74 45.6619 107.623 45.6124L107.546 45.9831L107.549 45.9955ZM111.343 41.0056V45.5907L111 45.7761V45.9986H112.46V45.7761L112.113 45.5907V43.465H113.34V45.5907L113.006 45.7761V45.9986H114.475V45.7761L114.132 45.5907V41.0179L114.423 40.8171V40.5916H113.065V40.8171L113.353 41.0179V43.0263H112.126V41.0179L112.433 40.8171V40.5916H111.079V40.8171L111.371 41.0179L111.343 41.0056ZM117.245 40.8109L117.527 41.0272L116.558 43.6071L116.251 44.6237V41.0118L116.537 40.8109V40.5947H115.181V40.8109L115.463 41.0118V45.532L115.128 45.77V45.9862H116.58V45.77L116.258 45.5475L117.193 43.0757L117.527 42.0221C117.527 42.3929 117.527 42.7791 117.527 43.1808C117.527 43.5824 117.527 43.9748 117.527 44.3734C117.527 44.7719 117.527 45.1582 117.527 45.532L117.184 45.77V45.9862H118.635V45.77L118.297 45.532V41.0118L118.582 40.8109V40.5947H117.236V40.8109H117.245ZM121.036 45.9862C121.215 45.9903 121.394 45.9747 121.57 45.9398C121.724 45.9128 121.872 45.8562 122.006 45.773C122.138 45.6935 122.245 45.5764 122.312 45.4362C122.39 45.2661 122.428 45.0799 122.422 44.8925V43.984C122.426 43.8374 122.401 43.6916 122.349 43.5546C122.305 43.4368 122.235 43.331 122.143 43.2456C122.055 43.1642 121.95 43.1012 121.837 43.0602C121.926 43.021 122.005 42.963 122.07 42.8903C122.134 42.8186 122.183 42.7345 122.214 42.6431C122.248 42.5491 122.266 42.4498 122.266 42.3496V41.5741C122.27 41.4072 122.241 41.2412 122.18 41.0859C122.131 40.9615 122.047 40.8541 121.938 40.777C121.826 40.7004 121.7 40.6478 121.567 40.6225C121.406 40.5929 121.243 40.5784 121.079 40.5792H119.368V40.8048L119.674 41.0056V45.5166L119.328 45.7483V45.9708L121.036 45.9862ZM121.619 44.8925C121.623 45.0149 121.607 45.1372 121.57 45.254C121.537 45.3435 121.473 45.4175 121.389 45.461C121.278 45.5093 121.157 45.5314 121.036 45.5259H120.257V45.4857C120.31 45.4724 120.357 45.4393 120.386 45.393C120.41 45.3432 120.421 45.2877 120.417 45.2323V43.3228H120.969C121.099 43.3184 121.229 43.3426 121.349 43.3939C121.441 43.4408 121.513 43.5183 121.555 43.6133C121.601 43.7312 121.623 43.8574 121.619 43.984V44.8925ZM121.457 42.3589C121.457 42.4528 121.441 42.5461 121.407 42.6339C121.375 42.7184 121.321 42.7929 121.251 42.8502C121.173 42.907 121.08 42.9373 120.984 42.9367H120.417V41.0427H120.984C121.076 41.0389 121.168 41.0648 121.244 41.1168C121.316 41.165 121.371 41.2325 121.404 41.3115C121.442 41.396 121.459 41.4879 121.457 41.5803V42.3589ZM125.99 44.7782H125.655L125.395 45.5166H124.094V45.4795C124.147 45.4662 124.192 45.4344 124.223 45.3899C124.248 45.3436 124.26 45.2912 124.257 45.2385V43.5391H124.99L125.189 43.947H125.419V42.6431H125.189L124.99 43.0695H124.257V41.0334H125.297L125.509 41.7935H125.892V40.5792H123.171V40.7801L123.459 40.9809V45.532L123.116 45.7637V45.9862H125.99V44.7782ZM128.238 41.0705C128.382 41.0639 128.525 41.0959 128.652 41.1631C128.756 41.2221 128.835 41.3163 128.876 41.4289C128.925 41.5644 128.948 41.708 128.944 41.8522V42.81C128.947 42.9533 128.923 43.096 128.873 43.2302C128.827 43.3406 128.746 43.4328 128.643 43.4928C128.516 43.5573 128.374 43.5881 128.232 43.5824H127.742V41.0643L128.238 41.0705ZM129.738 41.8522C129.743 41.6469 129.702 41.4432 129.618 41.2559C129.545 41.1011 129.433 40.9682 129.293 40.8696C129.149 40.768 128.987 40.6955 128.815 40.6564C128.624 40.612 128.428 40.5902 128.232 40.5916H126.68V40.8171L126.987 41.0179V45.5444L126.64 45.7761V45.9986H128.094V45.7761L127.757 45.5444V44.0366H128.232C128.431 44.0378 128.629 44.0192 128.824 43.981C128.997 43.9487 129.161 43.8826 129.309 43.7864C129.448 43.6947 129.561 43.5666 129.634 43.4156C129.718 43.2274 129.759 43.0225 129.754 42.8161V41.8522H129.738ZM133.468 40.5854H132.94L132.879 40.8789H132.857C132.783 40.7956 132.694 40.7274 132.594 40.6781C132.497 40.6302 132.393 40.5958 132.287 40.5762C132.179 40.555 132.069 40.5446 131.959 40.5452C131.689 40.5392 131.42 40.5974 131.177 40.7151C130.964 40.8211 130.79 40.9906 130.676 41.2002C130.553 41.4404 130.492 41.7083 130.499 41.9788V44.6515C130.495 44.8691 130.533 45.0853 130.613 45.2879C130.68 45.4584 130.785 45.6114 130.919 45.7359C131.06 45.8538 131.223 45.9431 131.398 45.9986C131.592 46.0567 131.793 46.0859 131.996 46.0851C132.203 46.0878 132.409 46.0607 132.609 46.0048C132.782 45.9546 132.944 45.8706 133.085 45.7576C133.219 45.6416 133.323 45.4956 133.391 45.3312C133.47 45.1351 133.509 44.9248 133.504 44.7132V44.4197H132.71V44.704C132.715 44.8628 132.694 45.0213 132.649 45.1736C132.612 45.2997 132.533 45.4089 132.425 45.4826C132.294 45.5601 132.144 45.5966 131.993 45.5876C131.894 45.5952 131.794 45.579 131.703 45.5404C131.611 45.5016 131.529 45.4416 131.465 45.3651C131.326 45.1595 131.261 44.912 131.281 44.6638V41.9912C131.273 41.8059 131.308 41.6213 131.379 41.4505C131.43 41.328 131.518 41.2251 131.631 41.157C131.733 41.0968 131.849 41.0659 131.968 41.0674C132.12 41.0611 132.27 41.1056 132.395 41.194C132.495 41.2725 132.569 41.3804 132.606 41.503C132.647 41.6477 132.667 41.7976 132.665 41.948V42.0932H133.459V40.5854H133.468ZM136.284 40.8233L136.566 41.0396L135.594 43.6195L135.287 44.636V41.0118L135.569 40.8109V40.5947H134.226V40.8109L134.508 41.0118V45.532L134.171 45.77V45.9862H135.624V45.77L135.317 45.5475L136.238 43.0757L136.575 42.0221C136.575 42.3929 136.575 42.7791 136.575 43.1808C136.575 43.5824 136.575 43.9748 136.575 44.3734V45.532L136.231 45.77V45.9862H137.686V45.77L137.348 45.532V41.0118L137.63 40.8109V40.5947H136.284V40.8233ZM140.731 41.0766L140.992 41.9634H141.36L141.329 40.5916H138.216L138.185 41.9634H138.554L138.799 41.0766H139.373V45.4981L139.035 45.7359V45.9986H140.511V45.7359L140.173 45.4981V41.0643L140.731 41.0766ZM144.737 44.7843H144.403L144.142 45.5227H142.842V45.4857C142.894 45.4724 142.939 45.4406 142.971 45.3961C142.996 45.35 143.006 45.2972 143.001 45.2447V43.5453H143.737L143.936 43.9532H144.164V42.6493H143.936L143.737 43.0757H143.001V41.0396H144.041L144.256 41.7997H144.639V40.5854H141.918V40.7862L142.206 40.987V45.5382L141.863 45.77V45.9924H144.737V44.7843ZM147.765 41.0766L148.025 41.9634H148.393L148.363 40.5916H145.25L145.219 41.9634H145.587L145.832 41.0766H146.406V45.4981L146.068 45.7359V45.9986H147.544V45.7359L147.206 45.4981V41.0643L147.765 41.0766ZM109.424 50.0646L109.706 50.2809L108.734 52.8608L108.427 53.8773V50.2531L108.709 50.0523V49.8391H107.365V50.0523L107.647 50.2531V54.7733L107.31 55.0143V55.2275H108.764V55.0143L108.442 54.7888L109.362 52.3171L109.699 51.2634C109.699 51.6373 109.699 52.0235 109.699 52.4221C109.699 52.8207 109.699 53.2161 109.699 53.6147V54.7733L109.356 55.0143V55.2275H110.81V55.0143L110.472 54.7733V50.2531L110.754 50.0523V49.8391H109.411V50.0523L109.424 50.0646ZM112.358 54.8011V51.4241L112.319 50.4292H112.358C112.451 50.939 112.543 51.4396 112.629 51.937C112.715 52.4345 112.804 52.9288 112.886 53.4263C112.969 53.9237 113.055 54.4273 113.138 54.9371C113.144 54.9988 113.172 55.056 113.218 55.0978C113.27 55.1374 113.334 55.1561 113.398 55.1503H114.034L114.874 50.3767H114.905L114.874 51.1522V54.7796L114.54 55.0113V55.2337H116.009V55.0113L115.671 54.7796V50.2531L115.978 50.0523V49.8391H114.871C114.793 49.8313 114.714 49.8376 114.638 49.8576C114.582 49.8722 114.533 49.9062 114.5 49.9534C114.459 50.0194 114.432 50.093 114.42 50.1697L113.72 54.2419C113.687 53.933 113.65 53.6549 113.614 53.3861C113.576 53.1173 113.543 52.8577 113.506 52.6044C113.469 52.351 113.426 52.0946 113.387 51.8413C113.347 51.5879 113.297 51.3253 113.251 51.0564C113.206 50.7876 113.15 50.5003 113.092 50.1975C113.077 50.1182 113.046 50.0426 113.003 49.975C112.968 49.925 112.917 49.888 112.859 49.87C112.783 49.8492 112.704 49.8409 112.625 49.8453H111.519V50.0585L111.825 50.2593V54.795L111.519 54.9958V55.2337H112.702V54.9958L112.396 54.795L112.358 54.8011ZM119.546 54.0318H119.208L118.947 54.7703H117.65V54.7332C117.701 54.7181 117.747 54.6867 117.779 54.6436C117.801 54.5975 117.811 54.5465 117.809 54.4953V52.7929H118.542L118.742 53.2007H118.972V51.8968H118.742L118.542 52.3232H117.809V50.2902H118.849L119.064 51.0471H119.444V49.8236H116.724V50.0214L117.031 50.2222V54.7733L116.687 55.0051V55.2275H119.561V54.0195L119.546 54.0318ZM120.524 50.2593V54.832L120.181 55.0174V55.2399H121.641V55.0174L121.297 54.832V52.6971H122.524V54.8228L122.19 55.0082V55.2306H123.64V55.0082L123.296 54.8228V50.25L123.603 50.0492V49.8268H122.251V50.0492L122.54 50.25V52.2584H121.312V50.25L121.601 50.0492V49.8268H120.248V50.0492L120.554 50.25L120.524 50.2593ZM126.425 50.0646L126.708 50.2809L125.738 52.8608L125.431 53.8773V50.2531L125.714 50.0523V49.8391H124.368V50.0523L124.65 50.2531V54.7733L124.315 55.0143V55.2275H125.766V55.0143L125.459 54.7888L126.38 52.3171L126.713 51.2634C126.713 51.6373 126.713 52.0235 126.713 52.4221C126.713 52.8207 126.713 53.2161 126.713 53.6147C126.713 54.0133 126.713 54.3995 126.713 54.7733L126.37 55.0143V55.2275H127.821V55.0143L127.486 54.7733V50.2531L127.769 50.0523V49.8391H126.423V50.0523L126.425 50.0646ZM132.803 49.836H130.066V50.0585L130.354 50.2963V54.7857L130.011 55.0174V55.2399H131.465V55.0174L131.127 54.7857V50.2778H132.204L132.434 51.109H132.803V49.8236V49.836ZM133.222 54.8939C133.22 54.9879 133.248 55.0801 133.302 55.1565C133.349 55.2216 133.416 55.2685 133.493 55.2893C133.567 55.311 133.646 55.311 133.72 55.2893C133.795 55.2677 133.861 55.2208 133.907 55.1565C133.961 55.0801 133.989 54.9879 133.987 54.8939C133.989 54.8008 133.961 54.7096 133.907 54.6343C133.861 54.5718 133.795 54.527 133.72 54.5076C133.646 54.486 133.567 54.486 133.493 54.5076C133.416 54.5261 133.349 54.571 133.302 54.6343C133.248 54.7096 133.22 54.8008 133.222 54.8939ZM137.643 50.3118C137.787 50.3053 137.93 50.3373 138.057 50.4045C138.16 50.4634 138.24 50.5576 138.281 50.6702C138.329 50.806 138.351 50.9496 138.345 51.0935V52.0575C138.352 52.2007 138.328 52.3437 138.278 52.4777C138.232 52.5888 138.152 52.6813 138.048 52.7403C137.921 52.8048 137.779 52.8356 137.637 52.8299H137.146V50.3118H137.643ZM139.143 51.0935C139.146 50.8884 139.105 50.6851 139.024 50.4972C138.949 50.3425 138.837 50.2095 138.698 50.111C138.554 50.0093 138.392 49.9369 138.219 49.8978C138.029 49.853 137.833 49.8323 137.637 49.836H136.085V50.0585L136.373 50.2593V54.7857L136.03 55.0174V55.2399H137.483V55.0174L137.146 54.7857V53.2779H137.622C137.82 53.2791 138.019 53.2605 138.214 53.2224C138.385 53.1892 138.55 53.1242 138.698 53.0307C138.837 52.9369 138.949 52.808 139.024 52.6569C139.106 52.4683 139.147 52.2637 139.143 52.0575V51.0935ZM139.677 54.8939C139.674 54.9879 139.702 55.0801 139.757 55.1565C139.802 55.2216 139.87 55.2685 139.946 55.2893C140.021 55.311 140.099 55.311 140.173 55.2893C140.25 55.267 140.317 55.2204 140.364 55.1565C140.418 55.0798 140.445 54.9875 140.44 54.8939C140.445 54.8011 140.417 54.7098 140.364 54.6343C140.316 54.5721 140.249 54.5275 140.173 54.5076C140.099 54.486 140.021 54.486 139.946 54.5076C139.87 54.5261 139.803 54.571 139.757 54.6343C139.702 54.7096 139.674 54.8008 139.677 54.8939ZM142.922 54.2419C142.915 54.3623 142.882 54.4795 142.824 54.5849C142.801 54.6216 142.771 54.6534 142.735 54.6783C142.7 54.7032 142.66 54.7209 142.618 54.7301C142.517 54.7494 142.413 54.7494 142.311 54.7301L142.265 56H142.661L142.891 55.2059H145.581L145.811 56H146.21L146.155 54.7301H145.682V50.2624L145.971 50.0616V49.8391H143.005V50.0616L143.336 50.2624L142.922 54.2419ZM144.909 50.2902V54.7424H143.229V54.7178C143.296 54.6834 143.352 54.6324 143.394 54.5694C143.429 54.5115 143.451 54.4476 143.462 54.381C143.475 54.3063 143.484 54.2311 143.489 54.1554L143.864 50.2902H144.909ZM149.581 53.9978H149.244L148.986 54.7363H147.676V54.6992C147.729 54.6859 147.774 54.6541 147.805 54.6096C147.829 54.564 147.839 54.5126 147.835 54.4613V52.7588H148.569L148.768 53.1667H148.998V51.8628H148.768L148.569 52.2892H147.83V50.2562H148.869L149.084 51.0132H149.467V49.8236H146.744V50.0214L147.035 50.2222V54.7733L146.692 55.0051V55.2275H149.565V54.0195L149.581 53.9978ZM151.829 50.2902C151.973 50.2836 152.116 50.3156 152.243 50.3829C152.346 50.4428 152.425 50.5367 152.467 50.6486C152.515 50.7843 152.537 50.928 152.531 51.0719V52.0359C152.538 52.1794 152.514 52.3227 152.461 52.456C152.418 52.5674 152.338 52.6603 152.234 52.7187C152.106 52.7831 151.964 52.8139 151.82 52.8083H151.332V50.2902H151.829ZM153.326 51.0719C153.332 50.8665 153.291 50.6624 153.206 50.4756C153.139 50.3223 153.033 50.1893 152.9 50.0894C152.755 49.9876 152.593 49.9152 152.422 49.8762C152.229 49.8313 152.033 49.8105 151.836 49.8144H150.283V50.0368L150.59 50.2376V54.7641L150.247 54.9958V55.2183H151.697V54.9958L151.363 54.7641V53.2563H151.836C152.035 53.2575 152.235 53.2389 152.43 53.2007C152.601 53.1675 152.765 53.1025 152.912 53.0091C153.052 52.9166 153.165 52.7874 153.238 52.6353C153.323 52.4476 153.364 52.2423 153.357 52.0359L153.326 51.0719Z" fill="white"/>
<path fill-rule="evenodd" clip-rule="evenodd" d="M154.227 50.0006V50.3173C154.299 50.3146 154.371 50.3308 154.435 50.3644C154.489 50.3985 154.536 50.4458 154.571 50.5025C154.611 50.5743 154.646 50.6498 154.675 50.7282C154.711 50.8227 154.741 50.9194 154.766 51.0178C154.797 51.1323 154.835 51.2637 154.87 51.4052C154.905 51.5466 154.949 51.6881 154.99 51.8329C155.028 51.9703 155.073 52.1052 155.125 52.2371C155.166 52.3469 155.216 52.4519 155.277 52.5503C155.319 52.6222 155.38 52.6786 155.453 52.712V52.7288C155.352 52.7371 155.257 52.7756 155.176 52.84C155.09 52.9085 155.018 52.9943 154.965 53.0926C154.903 53.1985 154.852 53.3115 154.814 53.4294C154.772 53.5583 154.738 53.6899 154.713 53.8235L154.47 55.0764C154.451 55.1694 154.421 55.2591 154.378 55.3425C154.341 55.4194 154.288 55.4854 154.22 55.5345C154.189 55.5576 154.152 55.5735 154.115 55.581C154.077 55.5885 154.038 55.5876 154 55.5783V55.8982C154.055 55.93 154.115 55.9527 154.176 55.9656C154.239 55.9817 154.302 55.993 154.366 55.9993H154.533C154.674 56.0057 154.814 55.9682 154.936 55.8915C155.039 55.8201 155.12 55.7183 155.169 55.5985C155.229 55.4649 155.272 55.3233 155.296 55.1774L155.523 53.9851C155.55 53.8204 155.597 53.6598 155.661 53.5069C155.712 53.3737 155.796 53.2576 155.904 53.17C156.022 53.0835 156.164 53.0398 156.307 53.0455H156.411V55.42L156.058 55.6827V55.915H157.549V55.6827L157.205 55.42V53.0455H157.306C157.449 53.0398 157.589 53.0835 157.706 53.17C157.811 53.2595 157.893 53.3752 157.946 53.5069C158.008 53.6604 158.055 53.8208 158.085 53.9851L158.312 55.1774C158.338 55.323 158.381 55.4645 158.441 55.5985C158.492 55.7174 158.575 55.8188 158.677 55.8915C158.797 55.9682 158.935 56.0057 159.074 55.9993H159.238C159.302 55.993 159.367 55.9817 159.43 55.9656C159.492 55.9527 159.551 55.93 159.606 55.8982V55.5783C159.569 55.5876 159.53 55.5885 159.492 55.581C159.454 55.5735 159.418 55.5576 159.386 55.5345C159.32 55.4846 159.264 55.4189 159.225 55.3425C159.184 55.2589 159.154 55.1693 159.137 55.0764L158.891 53.8235C158.868 53.6896 158.835 53.5579 158.794 53.4294C158.755 53.3115 158.705 53.1985 158.643 53.0926C158.588 52.9943 158.516 52.9085 158.431 52.84C158.351 52.7761 158.254 52.7377 158.154 52.7288V52.712C158.226 52.6794 158.287 52.6228 158.327 52.5503C158.39 52.4528 158.442 52.3476 158.481 52.2371C158.532 52.1125 158.576 51.9777 158.62 51.8329C158.664 51.6881 158.702 51.5466 158.74 51.4052C158.778 51.2637 158.809 51.1323 158.844 51.0178C158.868 50.9196 158.897 50.8229 158.933 50.7282C158.962 50.6497 158.998 50.5741 159.039 50.5025C159.074 50.4467 159.119 50.3996 159.172 50.3644C159.237 50.3308 159.308 50.3146 159.38 50.3173V50.0006H159.065C158.959 49.9976 158.853 50.0055 158.749 50.0242C158.649 50.0437 158.555 50.0862 158.472 50.1489C158.358 50.2364 158.265 50.3518 158.201 50.4856C158.126 50.6366 158.067 50.7959 158.025 50.9606C157.974 51.1324 157.93 51.2974 157.889 51.486C157.848 51.654 157.797 51.8193 157.738 51.9811C157.689 52.1241 157.617 52.2565 157.523 52.3719C157.435 52.4784 157.317 52.5507 157.186 52.5773V50.5126L157.482 50.2937V50.0512H156.093V50.2937L156.392 50.5126V52.5773C156.261 52.5516 156.141 52.4806 156.052 52.3752C155.955 52.2616 155.88 52.1288 155.831 51.9845C155.771 51.8232 155.722 51.6578 155.683 51.4893C155.639 51.3109 155.591 51.1526 155.544 50.9606C155.501 50.7963 155.441 50.6372 155.368 50.4856C155.303 50.3517 155.209 50.2362 155.094 50.1489C155.012 50.0863 154.918 50.0437 154.82 50.0242C154.716 50.0055 154.61 49.9976 154.504 50.0006H154.189H154.227ZM161.507 51.0313L162.118 53.8605H160.896L161.507 51.0313ZM162.239 54.3388L162.5 55.5244L162.279 55.7096V55.9252H163.613V55.6659L163.332 55.4806L162.071 50.0074H161.264C161.163 50.4418 161.06 50.8898 160.949 51.3547C160.839 51.8194 160.741 52.2843 160.634 52.7591C160.527 53.2341 160.426 53.6988 160.319 54.1603C160.212 54.6217 160.117 55.0731 160.004 55.5076L159.723 55.6659V55.9252H160.791V55.6659L160.514 55.5143L160.776 54.3388H162.239ZM165.758 55.9252C165.941 55.9296 166.124 55.9126 166.304 55.8747C166.464 55.8456 166.617 55.7838 166.754 55.6928C166.889 55.6055 166.999 55.4794 167.069 55.329C167.148 55.1418 167.187 54.9381 167.183 54.7329V53.7426C167.183 53.5831 167.158 53.4246 167.108 53.2745C167.061 53.1474 166.988 53.0326 166.896 52.9377C166.802 52.852 166.696 52.7837 166.581 52.7356C166.672 52.6928 166.754 52.6296 166.821 52.5503C166.885 52.4709 166.935 52.3796 166.969 52.2809C167.003 52.1781 167.019 52.0699 167.019 51.9609V51.1155C167.025 50.9324 166.995 50.7499 166.931 50.58C166.881 50.4446 166.796 50.3275 166.685 50.2432C166.569 50.1591 166.438 50.1018 166.301 50.0748C166.136 50.0419 165.97 50.0273 165.802 50.0309H164.047V50.2735L164.343 50.4924V55.4098L163.991 55.6624V55.905L165.758 55.9252ZM166.354 54.7329C166.36 54.8675 166.343 55.0022 166.304 55.1303C166.272 55.2268 166.207 55.3064 166.121 55.3526C166.006 55.4053 165.883 55.4295 165.758 55.4233H164.958V55.3795C165.012 55.3642 165.059 55.3283 165.09 55.2785C165.114 55.2239 165.125 55.1636 165.122 55.1034V53.0219H165.686C165.82 53.0163 165.953 53.0428 166.077 53.0993C166.172 53.1502 166.248 53.2347 166.291 53.3385C166.339 53.4668 166.36 53.6046 166.354 53.7426V54.7329ZM166.19 51.971C166.192 52.0738 166.173 52.1757 166.136 52.2708C166.103 52.3628 166.047 52.4441 165.976 52.5065C165.896 52.5689 165.8 52.602 165.701 52.6008H165.122V50.5362H165.701C165.798 50.5322 165.893 50.5605 165.973 50.6171C166.044 50.6706 166.101 50.7439 166.136 50.8292C166.173 50.9232 166.191 51.024 166.19 51.1256V51.971ZM170.07 50.287L170.363 50.5227L169.364 53.3351L169.049 54.4432V50.5025L169.339 50.2836V50.0512H167.955V50.2836L168.248 50.5025V55.4301L167.902 55.6928V55.9252H169.405V55.6928L169.074 55.4469L170.019 52.7524L170.366 51.6038V52.8669C170.366 53.3014 170.366 53.7325 170.366 54.167V55.4301L170.013 55.6928V55.9252H171.507V55.6928L171.16 55.4301V50.5025L171.45 50.2836V50.0512H170.066V50.2836L170.07 50.287ZM172.538 50.4991V55.484L172.184 55.6861V55.9285H173.685V55.6861L173.331 55.484V53.1667H174.592V55.484L174.246 55.6861V55.9285H175.736V55.6861L175.384 55.484V50.4991L175.698 50.2802V50.0377H174.308V50.2802L174.624 50.4991V52.6884H173.363V50.4991L173.659 50.2802V50.0377H172.241V50.2802L172.556 50.4991H172.538ZM177.895 51.0347L178.509 53.8639H177.283L177.895 51.0347ZM177.18 54.3422H178.626L178.885 55.5278L178.664 55.713V55.9285H180V55.6692L179.716 55.484L178.456 50.0108H177.646C177.545 50.4453 177.444 50.8932 177.331 51.358C177.217 51.8229 177.123 52.2876 177.016 52.7625C176.908 53.2374 176.805 53.7022 176.701 54.1637L176.385 55.5109L176.101 55.6692V55.9285H177.17V55.6692L176.896 55.5176L177.18 54.3422Z" fill="white"/>
<path fill-rule="evenodd" clip-rule="evenodd" d="M64.1266 18.024C64.9844 17.97 65.8708 18.024 66.7444 18.024H100.824C101.254 18.0017 101.685 18.0091 102.115 18.0462C102.448 18.1001 102.765 18.2318 103.039 18.4306C103.316 18.6182 103.545 18.8684 103.707 19.1609C103.869 19.4534 103.96 19.7799 103.973 20.1141C104.033 20.9654 103.973 21.8517 103.973 22.7315C103.973 34.0969 103.973 45.4052 103.973 56.8024C103.993 57.2311 103.987 57.6608 103.954 58.0889C103.901 58.4254 103.773 58.7457 103.579 59.0259C103.392 59.3029 103.144 59.533 102.853 59.6983C102.563 59.8636 102.239 59.9596 101.905 59.9788C101.044 60.0265 100.151 59.9788 99.2775 59.9788C87.8889 59.9788 76.608 59.9788 65.1907 59.9788C64.7622 59.9994 64.3322 59.992 63.9044 59.9566C63.567 59.9069 63.2454 59.7785 62.9668 59.5817C62.6873 59.3986 62.4554 59.1515 62.2897 58.8611C62.124 58.5707 62.0291 58.245 62.0141 57.911C61.9824 57.0406 62.0141 56.1639 62.0141 55.2808V21.1941C61.9937 20.7642 62.0005 20.3334 62.0359 19.9045C62.1037 19.3968 62.3484 18.9294 62.728 18.5851C63.1068 18.2409 63.5956 18.0421 64.1077 18.024H64.1266ZM64.2696 21.5181V55.4746C64.2696 55.8684 64.238 56.2719 64.2696 56.6499C64.2945 56.9581 64.4398 57.2441 64.6741 57.4461C64.9083 57.6481 65.2125 57.7501 65.5213 57.7299H99.5125C99.9064 57.7299 100.316 57.7649 100.691 57.7299C100.998 57.6986 101.28 57.5508 101.48 57.3174C101.681 57.084 101.784 56.7824 101.768 56.4751C101.768 55.7383 101.768 54.9218 101.768 54.1309V22.5123C101.768 22.1217 101.797 21.7214 101.768 21.3466C101.748 21.0384 101.607 20.7506 101.376 20.5451C101.146 20.3395 100.844 20.2327 100.536 20.2475C99.8175 20.2475 99.0011 20.2475 98.1915 20.2475H66.5343C66.1404 20.2475 65.7435 20.2221 65.3684 20.2475C65.2133 20.258 65.0619 20.2991 64.9226 20.3684C64.7825 20.4376 64.6583 20.5338 64.5566 20.6512C64.4542 20.7687 64.3766 20.9052 64.3269 21.0529C64.2779 21.2006 64.2583 21.3565 64.2696 21.5117V21.5181Z" fill="white"/>
<path fill-rule="evenodd" clip-rule="evenodd" d="M88.272 24.7711C88.9528 25.0646 89.6858 25.3117 90.382 25.596V26.5909C92.5576 27.2458 94.6211 27.805 96.8181 28.4446C96.9057 28.4746 96.9949 28.4994 97.0855 28.5188C97.4259 28.5423 97.7677 28.5423 98.1081 28.5188H99.4968V29.3839H100V54.4345H90.3047V55H75.6983V54.4438C72.4854 54.4191 69.2283 54.4438 66 54.4438V29.3932H66.4936C66.5187 29.1243 66.4936 28.8123 66.4936 28.5281H68.5697C68.6817 28.5377 68.7937 28.5377 68.9049 28.5281C68.9955 28.5091 69.0854 28.4843 69.1724 28.4539C71.3479 27.8359 73.4174 27.252 75.6084 26.6001V25.6052C76.2825 25.2963 77.0192 25.0677 77.7096 24.7803V24.2365C77.6875 24.059 77.6875 23.8795 77.7096 23.702C77.7376 23.6094 78.1008 23.4147 78.1943 23.3591C79.1027 22.8075 80.1002 22.4166 81.1434 22.2036C81.6319 22.1016 82.127 22.0365 82.6257 22.0089C83.7154 21.96 84.805 22.113 85.8386 22.46C86.7131 22.7358 87.5353 23.1534 88.272 23.6959V24.7772V24.7711ZM85.8696 24.3849C85.5594 24.2675 84.9781 24.32 84.5368 24.32H81.016C80.7685 24.2979 80.5202 24.2979 80.2734 24.32C80.0973 24.378 79.9249 24.4461 79.7569 24.5239C78.5325 24.9935 77.2712 25.4508 76.0652 25.9451V48.4376H89.9282V25.9482C88.6514 25.4539 87.2465 24.9101 85.8696 24.3849ZM66.8664 28.9235C66.8664 29.1893 66.8664 29.4858 66.8664 29.7361H66.3816V30.0667H75.7049V29.7361C75.5362 29.7472 75.3668 29.7472 75.198 29.7361V28.9019H73.1846V29.7484C72.7742 29.7484 72.3395 29.7639 71.9417 29.7484V28.9143H69.9275C69.9275 29.1923 69.943 29.5013 69.9275 29.7608C69.5208 29.7608 69.0884 29.7762 68.7001 29.7608V28.9266H66.8914C66.8914 28.9266 66.8914 28.9452 66.8914 28.9606L66.8664 28.9235ZM90.7953 28.9235C90.7953 29.1893 90.7953 29.4858 90.7953 29.7361H90.3106V30.0667H99.6338V29.7361H99.127V28.8895H97.3095V29.7361C96.8991 29.7361 96.4608 29.7516 96.0659 29.7361V28.9019H94.0553V29.7484H92.8125V28.9019H90.8108C90.8108 28.9019 90.8108 28.9204 90.8108 28.9359L90.7953 28.9235ZM66.3728 30.4684V31.7752H69.2254V30.4313H66.3853C66.3853 30.4313 66.3853 30.4467 66.3853 30.4621L66.3728 30.4684ZM69.6232 30.4684V31.7752H72.4198V30.4313H69.6232C69.6232 30.4313 69.6232 30.4467 69.6232 30.4621V30.4684ZM72.8302 30.4684V31.7752H75.6953V30.4313H72.8427C72.8427 30.4313 72.8427 30.4467 72.8427 30.4621L72.8302 30.4684ZM90.298 30.4684V31.7752H93.1514V30.4313H90.3106C90.3106 30.4313 90.3106 30.4467 90.3106 30.4621L90.298 30.4684ZM93.561 30.4684V31.7752H96.3584V30.4313H93.561C93.561 30.4313 93.561 30.4467 93.561 30.4621V30.4684ZM96.7687 30.4684V31.7752H99.6213V30.4313H96.7776C96.7776 30.4313 96.7776 30.4467 96.7776 30.4621L96.7687 30.4684ZM66.3728 32.1831V52.2348H75.6953V32.1522H66.3728C66.3728 32.1522 66.3728 32.1707 66.3728 32.1862V32.1831ZM90.3017 32.1831V52.2348H99.6243V32.1522H90.3017C90.3017 32.1522 90.3017 32.1707 90.3017 32.1862V32.1831ZM76.0652 50.7518V54.5921H76.7555V50.7208H76.0777C76.0777 50.7208 76.0777 50.7208 76.0777 50.7518H76.0652ZM77.2182 50.7518V54.5921H78.0138C78.0138 53.4366 78.0138 52.2533 78.0138 51.1163H79.6081V54.5921H80.5651V50.7208H77.2277C77.2277 50.7208 77.2277 50.7208 77.2277 50.7518H77.2182ZM81.0374 50.7518V54.5921H81.998C81.998 53.4366 81.9826 52.2533 81.998 51.1163C82.6596 51.1163 83.3463 51.1009 83.9894 51.1163V54.5921H84.9472V50.7208H81.0499C81.0499 50.7208 81.0499 50.7208 81.0499 50.7518H81.0374ZM85.4283 50.7518V54.5921H86.3889C86.3889 53.4366 86.3735 52.2533 86.3889 51.1163C86.9142 51.1163 87.4675 51.1009 87.9707 51.1163V54.5921H88.7693V50.7208H85.4408C85.4408 50.7208 85.4408 50.7208 85.4408 50.7518H85.4283ZM89.2511 50.7518V54.5921H89.9282V50.7208H89.2607C89.2607 50.7208 89.2416 50.7363 89.2416 50.7518H89.2511Z" fill="white"/>
<path fill-rule="evenodd" clip-rule="evenodd" d="M82.9701 31C83.017 31.0195 82.9947 31.1402 82.9947 31.2119V34.7978C82.8156 34.8242 82.6418 34.8927 82.4808 35C81.9874 34.0383 81.4934 33.1027 81 32.1442C81.5326 31.4664 82.2315 31.0609 82.9701 31Z" fill="white"/>
<path fill-rule="evenodd" clip-rule="evenodd" d="M84.0099 31C84.7525 31.0599 85.4566 31.4617 86 32.1359C85.5084 33.096 85.0023 34.0399 84.5108 35C84.3518 34.8905 84.1782 34.8221 84 34.7982V31.0325C84 31.0163 84 31 84.0099 31Z" fill="white"/>
<path fill-rule="evenodd" clip-rule="evenodd" d="M82 35.3662C81.7721 35.5441 81.5825 35.7591 81.4421 36C80.6085 35.5876 79.8061 35.1476 79 34.7241C79.2576 34.0782 79.6657 33.4901 80.1968 33C80.801 33.7777 81.3871 34.583 82 35.3662Z" fill="white"/>
<path fill-rule="evenodd" clip-rule="evenodd" d="M88 34.7158C87.2012 35.1531 86.3866 35.5711 85.5785 36C85.4313 35.7628 85.2347 35.5541 85 35.3857C85.6057 34.5868 86.2108 33.7915 86.8165 33C87.3354 33.4917 87.7388 34.0757 88 34.7158Z" fill="white"/>
<path fill-rule="evenodd" clip-rule="evenodd" d="M67.0129 33H76V34.5544H75.7109V36.9798H74.0003V34.5544C73.4966 34.5276 72.9442 34.5544 72.4215 34.5544C72.3956 35.3417 72.4215 36.1825 72.4215 36.9899H70.701V34.5645C70.1646 34.5377 69.584 34.5645 69.0316 34.5645C69.0065 35.3518 69.0316 36.1926 69.0316 37H67.2891V34.5745C67.1933 34.5641 67.0966 34.5641 67 34.5745V33.0536C67 33.0167 67 33 67.0129 33Z" fill="white"/>
<path fill-rule="evenodd" clip-rule="evenodd" d="M91.0101 33H100V34.5623H99.7108V37H97.9868V34.5522H96.3305V37H94.6157V34.5522H93.0104V37H91.2963V34.5623C91.1996 34.5519 91.103 34.5519 91.0071 34.5623V33.0337C90.9972 33.0168 90.9972 33 91.0101 33Z" fill="white"/>
<path fill-rule="evenodd" clip-rule="evenodd" d="M81 36.2572C80.9311 36.4953 80.8948 36.7466 80.8928 37H79.0004C78.9932 36.3195 79.0802 35.6426 79.2584 35C79.8443 35.4126 80.4167 35.8556 81 36.2572Z" fill="white"/>
<path fill-rule="evenodd" clip-rule="evenodd" d="M87.733 35C87.9139 35.6422 88.004 36.3189 87.9999 37H86.0984C86.0984 36.7473 86.0653 36.4964 86 36.2572L87.733 35Z" fill="white"/>
<path fill-rule="evenodd" clip-rule="evenodd" d="M84.998 37H82C82.0237 35.9225 82.5334 35.0679 83.3964 35.0047C83.5946 34.9873 83.7936 35.0184 83.98 35.0958C84.1664 35.1734 84.3361 35.2954 84.4771 35.4537C84.6531 35.6575 84.7899 35.8999 84.8793 36.1658C84.9694 36.4318 85.0098 36.7158 84.998 37Z" fill="white"/>
<path fill-rule="evenodd" clip-rule="evenodd" d="M79.0104 37H80V42H79V37.0373C79 37.0204 79.0006 37.0034 79.0104 37Z" fill="white"/>
<path fill-rule="evenodd" clip-rule="evenodd" d="M81.0183 37H82V42H81V37.0373C81 37.0204 81 37.0034 81.0183 37Z" fill="white"/>
<path fill-rule="evenodd" clip-rule="evenodd" d="M82.0104 37H85V42H82.002V37.0373C81.9985 37.0204 81.9985 37.0034 82.0104 37Z" fill="white"/>
<path fill-rule="evenodd" clip-rule="evenodd" d="M85.0154 37H86V42H85.005V37.0373C84.9971 37.0204 84.9971 37.0034 85.0154 37Z" fill="white"/>
<path fill-rule="evenodd" clip-rule="evenodd" d="M87.0093 37H88V42H87.0013V37.0373C86.9989 37.0204 86.9989 37.0034 87.0093 37Z" fill="white"/>
<path fill-rule="evenodd" clip-rule="evenodd" d="M71.4997 38.0093C71.9991 38.3962 72.5064 38.7709 73 39.1672V48H70.0137V39.7245C69.9954 39.5424 69.9954 39.3586 70.0137 39.1765C70.0353 39.1021 70.289 38.9288 70.3661 38.8669C70.7551 38.5573 71.1081 38.3003 71.4912 38L71.4997 38.0093ZM70.3831 41.5573V46.2012H72.6385V41.5263H70.3942C70.3942 41.5263 70.3831 41.5418 70.3831 41.5573Z" fill="white"/>
<path fill-rule="evenodd" clip-rule="evenodd" d="M96.9915 48H94.0122V39.7168C93.9959 39.5344 93.9959 39.3506 94.0122 39.1683C94.0344 39.0815 94.2877 38.9141 94.3647 38.8584C94.7447 38.5485 95.1468 38.2665 95.5078 38C95.9484 38.3347 96.3609 38.6508 96.8153 39.0102C96.876 39.0567 96.9726 39.1156 96.9863 39.1589C97.0046 39.3444 97.0046 39.5314 96.9863 39.7168V47.9908L96.9915 48ZM94.3784 41.5513V46.1995H96.6201V41.5203H94.3895C94.3895 41.5203 94.3784 41.5358 94.3784 41.5513Z" fill="white"/>
<path fill-rule="evenodd" clip-rule="evenodd" d="M67.0151 42H69V45H67V42.0262C67 42.0262 67 42.0026 67.0151 42Z" fill="white"/>
<path fill-rule="evenodd" clip-rule="evenodd" d="M71.0151 42H73V45H71V42.0262C71 42.0262 71 42.0026 71.0151 42Z" fill="white"/>
<path fill-rule="evenodd" clip-rule="evenodd" d="M74.0118 42H76V45H74.0004V42.0262C74.0004 42.0262 73.9968 42.0026 74.0118 42Z" fill="white"/>
<path fill-rule="evenodd" clip-rule="evenodd" d="M91.0151 42H93V45H91V42.0262C91 42.0262 91 42.0026 91.0151 42Z" fill="white"/>
<path fill-rule="evenodd" clip-rule="evenodd" d="M94.011 42H96V45H94.0004V42.0262C94.0004 42.0262 93.9969 42.0026 94.011 42Z" fill="white"/>
<path fill-rule="evenodd" clip-rule="evenodd" d="M98.011 42H100V45H98.0004V42.0262C98.0004 42.0262 97.9969 42.0026 98.011 42Z" fill="white"/>
<path fill-rule="evenodd" clip-rule="evenodd" d="M78.0131 42.1581H88V42.8419H78V42.2004C78 42.1793 78 42.1581 78.0131 42.1581Z" fill="white"/>
<path fill-rule="evenodd" clip-rule="evenodd" d="M78.0131 44H88V45H78V44.0246C78 44.0246 78 44 78.0131 44Z" fill="white"/>
<path fill-rule="evenodd" clip-rule="evenodd" d="M78 46H80V49H78V46.0287C78 46.0143 78 46.0029 78 46Z" fill="white"/>
<path fill-rule="evenodd" clip-rule="evenodd" d="M82.0114 46H84V49H82.0016V46.0287C81.9986 46.0143 81.9986 46.0029 82.0114 46Z" fill="white"/>
<path fill-rule="evenodd" clip-rule="evenodd" d="M87.0135 46H89V49H87.0005V46.0287C87.0005 46.0143 86.9961 46.0029 87.0135 46Z" fill="white"/>
<path fill-rule="evenodd" clip-rule="evenodd" d="M67.0151 49H69V52H67V49.0287C67 49.0157 67 49.0026 67.0151 49Z" fill="white"/>
<path fill-rule="evenodd" clip-rule="evenodd" d="M71.0132 49H73V52H71.0026V49.0287C70.9981 49.0157 70.9981 49.0026 71.0132 49Z" fill="white"/>
<path fill-rule="evenodd" clip-rule="evenodd" d="M74.0134 49H76V52H74.0019V49.0287C73.9984 49.0157 73.9984 49.0026 74.0134 49Z" fill="white"/>
<path fill-rule="evenodd" clip-rule="evenodd" d="M91.0151 49H93V52H91V49.0287C91 49.0157 91 49.0026 91.0151 49Z" fill="white"/>
<path fill-rule="evenodd" clip-rule="evenodd" d="M94.0101 49H96V52H94.0145V49.0287C93.996 49.0157 93.996 49.0026 94.0101 49Z" fill="white"/>
<path fill-rule="evenodd" clip-rule="evenodd" d="M98.011 49H100V52H98.0004V49.0287C98.0004 49.0157 97.9969 49.0026 98.011 49Z" fill="white"/>
<path d="M11.1494 15.9717C7.77145 17.9288 3.94273 19.0615 0 19.2701V12.2314C8.73676 11.8984 11.7249 7.38953 13.7929 2H20V79H11.1494V15.9717Z" fill="white"/>
<path d="M112 75.869C113.008 75.869 113.33 75.719 113.371 74.3292L113.735 63H120V77.99H117.733V65.1272H115.798L115.555 74.1885C115.475 76.9295 114.548 78 112.331 78H112V75.869Z" fill="white"/>
<path d="M126.558 69.3216H130.078V71.4665H126.558V75.8582H131V78H124V63H131V65.1286H126.558V69.3216Z" fill="white"/>
<path d="M133 63H140V65.1304H137.633V78H135.367V65.1304H133V63Z" fill="white"/>
</svg>
